<?xml version="1.0" encoding="UTF-8" standalone="no"?>
<svg
   version="1.1"
   id="Layer_1"
   x="0px"
   y="0px"
   width="1000"
   height="269.66785"
   viewBox="14.5 4 999.99999 269.66786"
   enable-background="new 14.5 4 98 27"
   xml:space="preserve"
   sodipodi:docname="Combiphar.svg"
   inkscape:version="1.1.1 (3bf5ae0d25, 2021-09-20)"
   xmlns:inkscape="http://www.inkscape.org/namespaces/inkscape"
   xmlns:sodipodi="http://sodipodi.sourceforge.net/DTD/sodipodi-0.dtd"
   xmlns:xlink="http://www.w3.org/1999/xlink"
   xmlns="http://www.w3.org/2000/svg"
   xmlns:svg="http://www.w3.org/2000/svg"
   xmlns:rdf="http://www.w3.org/1999/02/22-rdf-syntax-ns#"
   xmlns:cc="http://creativecommons.org/ns#"
   xmlns:dc="http://purl.org/dc/elements/1.1/"><metadata
   id="metadata105"><rdf:RDF><cc:Work
       rdf:about=""><dc:format>image/svg+xml</dc:format><dc:type
         rdf:resource="http://purl.org/dc/dcmitype/StillImage" /></cc:Work></rdf:RDF></metadata><defs
   id="defs103"><linearGradient
   inkscape:collect="always"
   id="linearGradient34400"><stop
     style="stop-color:#ef4e9d;stop-opacity:1"
     offset="0"
     id="stop34394" /><stop
     style="stop-color:#91278f;stop-opacity:1"
     offset="0.53504765"
     id="stop34396" /><stop
     style="stop-color:#532e91;stop-opacity:1"
     offset="1"
     id="stop34398" /></linearGradient><linearGradient
   inkscape:collect="always"
   id="linearGradient34275"><stop
     style="stop-color:#532e91;stop-opacity:1"
     offset="0"
     id="stop34273" /><stop
     style="stop-color:#91278f;stop-opacity:1"
     offset="0.41472253"
     id="stop34271" /><stop
     style="stop-color:#ef4e9d;stop-opacity:1"
     offset="1"
     id="stop34269" /></linearGradient><linearGradient
   inkscape:collect="always"
   id="linearGradient1019-8-7"><stop
     style="stop-color:#ef4e9d;stop-opacity:1"
     offset="0"
     id="stop1015" /><stop
     style="stop-color:#91278f;stop-opacity:1"
     offset="0.52926898"
     id="stop1023" /><stop
     style="stop-color:#532e91;stop-opacity:1"
     offset="1"
     id="stop1017" /></linearGradient>
	
	
	
	
	
	
	
	
	
	
	
	
	
	
	
	
	
	
	
	
	
	
	
	
	
	
	
	
	
	
	
	
	
	
	
	
	
	
	
	
	
	
	
	
	
	
	
	
<linearGradient
   inkscape:collect="always"
   xlink:href="#linearGradient34400"
   id="linearGradient1021"
   x1="871.08789"
   y1="32.276363"
   x2="766.15454"
   y2="250.07317"
   gradientUnits="userSpaceOnUse" /><linearGradient
   inkscape:collect="always"
   xlink:href="#linearGradient34275"
   id="linearGradient1031"
   x1="933.3916"
   y1="192.61943"
   x2="980.15576"
   y2="7.8515778"
   gradientUnits="userSpaceOnUse" /><linearGradient
   inkscape:collect="always"
   xlink:href="#linearGradient1019-8-7"
   id="linearGradient1049"
   x1="896.34021"
   y1="199.71889"
   x2="898.94867"
   y2="98.602608"
   gradientUnits="userSpaceOnUse" /></defs><sodipodi:namedview
   pagecolor="#ffffff"
   bordercolor="#666666"
   borderopacity="1"
   objecttolerance="10"
   gridtolerance="10"
   guidetolerance="10"
   inkscape:pageopacity="0"
   inkscape:pageshadow="2"
   inkscape:window-width="1366"
   inkscape:window-height="705"
   id="namedview101"
   showgrid="false"
   inkscape:zoom="0.5"
   inkscape:cx="481"
   inkscape:cy="149"
   inkscape:window-x="-8"
   inkscape:window-y="-8"
   inkscape:window-maximized="1"
   inkscape:current-layer="Layer_1"
   inkscape:document-rotation="0"
   inkscape:pagecheckerboard="0" />

<g
   id="g1061"
   transform="matrix(1.0051625,0,0,0.98939652,0.24678926,-2.5759408)"
   style="display:inline"><path
     style="color:#000000;font-style:normal;font-variant:normal;font-weight:normal;font-stretch:normal;font-size:medium;line-height:normal;font-family:sans-serif;font-variant-ligatures:normal;font-variant-position:normal;font-variant-caps:normal;font-variant-numeric:normal;font-variant-alternates:normal;font-variant-east-asian:normal;font-feature-settings:normal;font-variation-settings:normal;text-indent:0;text-align:start;text-decoration:none;text-decoration-line:none;text-decoration-style:solid;text-decoration-color:#000000;letter-spacing:normal;word-spacing:normal;text-transform:none;writing-mode:lr-tb;direction:ltr;text-orientation:mixed;dominant-baseline:auto;baseline-shift:baseline;text-anchor:start;white-space:normal;shape-padding:0;shape-margin:0;inline-size:0;clip-rule:nonzero;display:inline;overflow:visible;visibility:visible;isolation:auto;mix-blend-mode:normal;color-interpolation:sRGB;color-interpolation-filters:linearRGB;solid-color:#000000;solid-opacity:1;vector-effect:none;fill:url(#linearGradient1049);fill-opacity:1;fill-rule:evenodd;stroke:none;stroke-width:1.71027;stroke-linecap:square;stroke-linejoin:round;stroke-miterlimit:4;stroke-dasharray:none;stroke-dashoffset:0;stroke-opacity:1;paint-order:stroke fill markers;color-rendering:auto;image-rendering:auto;shape-rendering:auto;text-rendering:auto;enable-background:accumulate;stop-color:#000000"
     d="m 925.64453,80.453125 c -6.55085,1.055933 -13.24906,2.500278 -19.9707,4.564453 -7.283,2.236566 -13.74369,4.847317 -19.64453,7.941406 0.6323,18.179206 -4.41767,46.709986 -17.98828,64.876956 -12.46886,16.69205 -23.79748,18.52374 -29.6836,18.02929 8.89575,1.4171 25.26309,-2.78585 31.97461,-5.67968 7.88583,-3.40018 21.4575,-10.42764 38.29794,-29.50008 11.72867,-17.84771 18.45336,-37.75513 17.01456,-60.232345 z"
     id="path992"
     sodipodi:nodetypes="cscscscc" /><path
     style="color:#000000;font-style:normal;font-variant:normal;font-weight:normal;font-stretch:normal;font-size:medium;line-height:normal;font-family:sans-serif;font-variant-ligatures:normal;font-variant-position:normal;font-variant-caps:normal;font-variant-numeric:normal;font-variant-alternates:normal;font-variant-east-asian:normal;font-feature-settings:normal;font-variation-settings:normal;text-indent:0;text-align:start;text-decoration:none;text-decoration-line:none;text-decoration-style:solid;text-decoration-color:#000000;letter-spacing:normal;word-spacing:normal;text-transform:none;writing-mode:lr-tb;direction:ltr;text-orientation:mixed;dominant-baseline:auto;baseline-shift:baseline;text-anchor:start;white-space:normal;shape-padding:0;shape-margin:0;inline-size:0;clip-rule:nonzero;display:inline;overflow:visible;visibility:visible;isolation:auto;mix-blend-mode:normal;color-interpolation:sRGB;color-interpolation-filters:linearRGB;solid-color:#000000;solid-opacity:1;vector-effect:none;fill:url(#linearGradient1021);fill-opacity:1;fill-rule:evenodd;stroke:none;stroke-width:1.71027;stroke-linecap:square;stroke-linejoin:round;stroke-miterlimit:4;stroke-dasharray:none;stroke-dashoffset:0;stroke-opacity:1;paint-order:stroke fill markers;color-rendering:auto;image-rendering:auto;shape-rendering:auto;text-rendering:auto;enable-background:accumulate;stop-color:#000000"
     d="m 835.02539,40.054688 c -32.77466,6.671828 -72.2022,31.340924 -98.86328,62.978512 -26.66108,31.63759 -36.93052,52.34427 -45.58203,81.60157 -6.97981,23.60405 -10.84872,63.302 16.99023,84.71289 27.83895,21.41089 78.61684,-0.94192 79.62305,-3.45704 1.00621,-2.5151 -4.38045,-7.47242 -7.21875,-6.91796 -2.8383,0.55446 -49.23319,21.36437 -63.54883,-2.89844 -14.31564,-24.26281 -2.81266,-56.95041 19.49024,-91.18164 22.3029,-34.23123 54.18169,-59.34642 80.2246,-72.615236 11.05474,-5.632365 23.93594,-10.82005 35.50586,-14.126953 4.09464,-5.828878 8.28984,-11.308396 12.36329,-16.123047 6.83008,-8.072894 14.3755,-15.973294 22.80859,-23.210938 -17.40018,-2.824326 -35.47892,-2.082713 -51.79297,1.238282 z"
     id="path950" /><path
     id="rect964"
     style="display:inline;fill:url(#linearGradient1031);fill-opacity:1;fill-rule:evenodd;stroke:none;stroke-width:29.7798;stroke-linecap:square;stroke-linejoin:round;stroke-opacity:1;paint-order:stroke fill markers"
     d="m 1009,41.47 c 1,16.868201 -15.18889,31.747523 -33.05497,34.280003 -17.86608,2.53248 -43.91434,1.173555 -70.27179,9.267767 -26.35745,8.094212 -41.96899,21.06226 -59.10026,44.27383 -17.13127,23.21158 -18.87379,41.0535 -12.11211,45.28064 6.76168,4.22714 27.98469,-0.98626 35.87052,-4.38643 7.88583,-3.40018 21.45759,-10.42763 38.29803,-29.50007 -21.64619,35.49359 -61.1528,49.16392 -77.47797,39.8035 -16.32517,-9.36042 -12.74539,-33.6063 -5.50157,-54.32835 C 832.8937,105.43884 849.26331,79.456022 864.00933,62.0268 878.75535,44.597578 896.78238,27.930536 920.05497,17.140071 943.32756,6.3496057 962.65454,5.1693013 979.995,7.8900709 997.33546,10.610841 1008,24.601799 1009,41.47 Z"
     sodipodi:nodetypes="zzzzzzczzzzzz" /></g><g
   id="g9315"
   style="display:inline;fill:#522d90;fill-opacity:1"
   transform="matrix(1.0142913,0,0,1.0142913,-0.20722385,0.13250774)"><path
     d="m 72.768534,233.97186 c 0,-0.86184 -0.237232,-1.38118 -0.830938,-2.242 l -4.625701,-6.70684 c -0.593706,-0.86082 -0.819657,-1.03697 -1.466032,-1.03697 -0.646376,0 -1.016573,0.25749 -1.43639,0.43092 -3.877092,1.60163 -7.105048,2.45986 -13.281526,2.45986 -12.352954,0 -18.673071,-9.48018 -18.673071,-23.26952 0,-14.07662 7.038312,-22.8386 19.391266,-22.8386 5.027366,0 9.623814,1.43639 13.789345,3.16006 0.574556,0.28727 1.149112,0.57455 1.580029,0.57455 0.861834,0 1.43639,-0.71819 1.723668,-2.01094 l 1.867307,-7.61287 c 0.143639,-0.43092 0.287278,-1.29275 0.287278,-1.72367 0,-1.14911 -0.574556,-1.43639 -1.723668,-2.01095 C 63.337263,168.41575 56.58623,167.123 50.122474,167.123 27.858428,167.123 14.5,182.2051 14.5,204.46914 c 0,22.12041 12.209316,35.90976 34.329723,35.90976 7.612868,0 14.627453,-0.76141 21.527844,-3.90895 1.287105,-0.5871 2.410967,-1.63626 2.410967,-2.49809 z"
     id="path7836"
     style="font-weight:bold;font-size:143.639px;line-height:1.25;font-family:FSAlbert;-inkscape-font-specification:'FSAlbert Bold';letter-spacing:-4.44px;opacity:1;fill:#522d90;fill-opacity:1;stroke-width:3.59098"
     sodipodi:nodetypes="zsszsssscsccscssssz" /><path
     d="m 144.97501,203.75095 c 0,-21.11494 -10.77293,-36.62795 -34.18609,-36.62795 -22.407687,0 -35.04792,15.80029 -35.04792,36.48431 0,20.97129 10.772926,36.77159 34.18609,36.77159 22.40768,0 35.04792,-15.94393 35.04792,-36.62795 z m -17.95488,0 c 0,11.7784 -4.30917,22.98224 -16.9494,22.98224 -12.783879,0 -16.374854,-11.63476 -16.374854,-23.41316 0,-11.49112 4.165531,-22.55132 16.949404,-22.55132 12.64024,0 16.37485,11.20384 16.37485,22.98224 z"
     id="path7838"
     style="font-weight:bold;font-size:143.639px;line-height:1.25;font-family:FSAlbert;-inkscape-font-specification:'FSAlbert Bold';letter-spacing:-4.44px;opacity:1;fill:#522d90;fill-opacity:1;stroke-width:3.59098" /><path
     d="m 258.46264,235.06425 v -36.34067 c 0,-9.19289 -0.71819,-15.51301 -3.44733,-20.82765 -3.01642,-5.60192 -9.62382,-10.77293 -20.10946,-10.77293 -8.76198,0 -18.09852,3.16006 -24.56227,9.33654 -3.3037,-5.45829 -9.48018,-9.33654 -18.24216,-9.33654 -7.46923,0 -15.22573,3.01642 -21.11493,8.18742 l -0.14364,-3.59097 c -0.14364,-2.01095 -1.43639,-2.72914 -3.59098,-2.72914 h -9.33653 c -2.15459,0 -3.44734,1.00547 -3.44734,3.3037 v 62.77024 c 0,2.5855 1.14911,3.59098 3.73462,3.59098 h 10.05473 c 2.44186,0 3.59097,-1.00548 3.59097,-3.59098 v -45.82084 c 4.59645,-4.02189 10.34201,-7.18195 15.94393,-7.18195 8.76198,0 10.34201,6.03284 10.34201,13.6457 v 39.35709 c 0,2.5855 1.14911,3.59098 3.73461,3.59098 h 9.48018 c 2.44186,0 3.44733,-1.00548 3.44733,-3.59098 v -23.98771 c 0,-2.01095 -0.28727,-21.25858 -0.57455,-22.55133 4.45281,-3.59097 10.77292,-6.46375 16.23121,-6.46375 8.76198,0 10.77292,5.8892 10.77292,13.6457 v 39.35709 c 0,2.5855 1.14911,3.59098 3.73462,3.59098 h 10.05473 c 2.44186,0 3.44733,-1.00548 3.44733,-3.59098 z"
     id="path7840"
     style="font-weight:bold;font-size:143.639px;line-height:1.25;font-family:FSAlbert;-inkscape-font-specification:'FSAlbert Bold';letter-spacing:-4.44px;opacity:1;fill:#522d90;fill-opacity:1;stroke-width:3.59098" /><path
     d="m 337.16403,203.89459 c 0,-12.06568 -3.3037,-23.26952 -10.91657,-30.02056 -4.59645,-4.16553 -10.48565,-6.75103 -18.38579,-6.75103 -7.46923,0 -14.3639,3.01642 -18.96035,7.03831 v -34.13567 c 0,-2.29823 -1.00547,-2.87278 -2.44186,-2.87278 -0.43092,0 -0.86184,0 -1.43639,0.14364 l -10.62929,1.43639 c -2.29822,0.28727 -2.87278,1.58002 -2.87278,3.87825 v 92.45311 c 0,2.44187 1.00547,3.59098 3.44734,3.59098 h 8.61834 c 1.8673,0 3.01642,-0.43092 3.16006,-1.72367 l 0.57455,-4.74009 c 4.02189,4.45281 11.7784,8.18743 18.24216,8.18743 21.40221,0 31.60058,-16.66213 31.60058,-36.48431 z m -17.95488,0.14364 c 0,11.20384 -3.73461,21.97676 -16.23121,21.97676 -5.31464,0 -10.62928,-3.16005 -14.07662,-7.03831 v -30.73874 c 3.87825,-3.59098 9.48018,-6.46376 14.79482,-6.46376 11.92204,0 15.51301,10.62929 15.51301,22.26405 z"
     id="path7842"
     style="font-weight:bold;font-size:143.639px;line-height:1.25;font-family:FSAlbert;-inkscape-font-specification:'FSAlbert Bold';letter-spacing:-4.44px;opacity:1;fill:#522d90;fill-opacity:1;stroke-width:3.59098"
     sodipodi:nodetypes="scscssccssssccssssccss" /><path
     d="m 366.39127,149.84799 c 0,-5.74556 -4.74009,-9.04925 -9.62382,-9.04925 -5.02736,0 -9.76745,3.44733 -9.76745,9.1929 0,5.74556 5.02736,8.90561 9.76745,8.90561 4.74009,0 9.62382,-3.44732 9.62382,-9.04926 z m -0.86184,85.21626 v -62.77024 c 0,-2.58551 -1.29275,-3.3037 -3.59097,-3.3037 h -10.05473 c -2.29823,0 -3.73462,0.86183 -3.73462,3.3037 v 62.77024 c 0,2.5855 1.14911,3.59098 3.73462,3.59098 h 10.05473 c 2.44186,0 3.59097,-1.00548 3.59097,-3.59098 z"
     id="path7844"
     style="font-weight:bold;font-size:143.639px;line-height:1.25;font-family:FSAlbert;-inkscape-font-specification:'FSAlbert Bold';letter-spacing:-4.44px;opacity:1;fill:#522d90;fill-opacity:1;stroke-width:3.59098"
     sodipodi:nodetypes="ssssssssssssss" /><path
     d="m 446.62395,202.88911 c 0,-10.05473 -2.87278,-20.10946 -9.04926,-26.86049 -4.74009,-5.171 -11.34748,-8.76198 -20.82766,-8.76198 -7.7565,0 -15.94393,3.59098 -20.10946,8.33106 l -0.14364,-3.87825 c -0.14364,-2.15459 -1.43639,-2.72914 -3.87825,-2.72914 h -8.61834 c -2.29822,0 -3.44734,0.86183 -3.44734,3.3037 v 93.65263 c 0,2.44186 1.14912,3.73461 3.44734,3.73461 h 10.05473 c 2.44186,0 3.73461,-0.86183 3.73461,-3.73461 V 233.7715 c 4.16554,4.30917 10.77293,6.75103 17.38032,6.75103 9.33654,0 16.80577,-3.73461 22.12041,-9.76745 6.03284,-7.03831 9.33654,-16.9494 9.33654,-27.86597 z m -18.09852,0.86184 c 0,7.03831 -1.58003,13.07115 -5.171,17.52396 -2.44187,3.01642 -6.46376,5.31464 -11.49112,5.31464 -5.45829,0 -11.20385,-3.16006 -14.07663,-7.03831 v -31.3133 c 2.87278,-3.59098 9.48018,-7.03832 14.79482,-7.03832 5.02737,0 9.04926,2.01095 11.7784,5.8892 2.87278,4.0219 4.16553,9.91109 4.16553,16.66213 z"
     id="path7846"
     style="font-weight:bold;font-size:143.639px;line-height:1.25;font-family:FSAlbert;-inkscape-font-specification:'FSAlbert Bold';letter-spacing:-4.44px;opacity:1;fill:#522d90;fill-opacity:1;stroke-width:3.59098" /><path
     d="m 519.88701,235.78245 v -42.94807 c 0,-15.51301 -6.60739,-25.71138 -22.69496,-25.71138 -7.61287,0 -16.66213,2.72914 -22.69496,7.75651 v -34.85387 c 0,-2.01095 -0.86184,-2.72914 -2.44187,-2.72914 -0.57455,0 -1.29275,0 -1.8673,0.14363 l -9.9111,1.29276 c -2.01094,0.28727 -3.16005,1.00547 -3.16005,3.59097 v 93.74587 c 0,1.8673 0.57455,2.5855 2.29822,2.5855 h 12.35295 c 2.15459,0 2.72915,-0.7182 2.72915,-2.87278 v -46.53904 c 4.45281,-3.87825 11.63476,-6.89467 17.23668,-6.89467 8.61834,0 10.77292,5.74556 10.77292,13.50206 v 39.93165 c 0,2.29822 0.43092,2.87278 2.44187,2.87278 h 12.64023 c 1.86731,0 2.29822,-0.7182 2.29822,-2.87278 z"
     id="path7848"
     style="font-weight:bold;font-size:143.639px;line-height:1.25;font-family:FSAlbert;-inkscape-font-specification:'FSAlbert Bold';letter-spacing:-4.44px;opacity:1;fill:#522d90;fill-opacity:1;stroke-width:3.59098"
     sodipodi:nodetypes="ssscssccssssscssssss" /><path
     id="path7850"
     style="font-weight:bold;font-size:143.639px;line-height:1.25;font-family:FSAlbert;-inkscape-font-specification:'FSAlbert Bold';letter-spacing:-4.44px;opacity:1;fill:#522d90;fill-opacity:1;stroke-width:3.59098"
     d="m 545.61914,163.12305 c -16.08756,0 -31.02734,13.07037 -31.02734,37.91992 0,18.67307 9.19416,35.33594 29.44726,35.33594 7.90015,0 17.23716,-4.88458 20.82813,-10.19922 h 0.28711 c 1.00547,4.88372 4.30811,8.47461 11.77734,8.47461 1.72367,0 3.44727,-1.00486 3.44727,-2.72852 v -63.77539 c 0,-2.15459 -1.14832,-3.16016 -3.01563,-3.16016 h -10.05469 c -1.72366,0 -2.87394,1.00591 -3.01757,2.58594 l -0.28711,3.87695 c -3.59098,-4.88372 -10.7719,-8.33007 -18.38477,-8.33007 z m 3.16016,14.2207 c 5.45828,0 11.34792,3.15869 14.2207,7.32422 v 27.72265 c -2.15458,4.45281 -8.18825,9.76758 -15.22656,9.76758 -10.62929,0 -15.22657,-10.198 -15.22656,-22.26367 0,-15.0821 7.47044,-22.55078 16.23242,-22.55078 z"
     transform="translate(14.5,4)" /><path
     d="m 646.61292,169.56486 c 0,-1.14911 -0.43091,-1.58002 -1.43639,-1.8673 -1.29275,-0.28728 -2.87278,-0.57456 -4.02189,-0.57456 -8.04378,0 -12.92751,3.59098 -17.38032,9.1929 l -0.14364,-4.59645 c 0,-2.01095 -1.29275,-2.72914 -3.59097,-2.72914 h -9.1929 c -2.15459,0 -3.59098,0.71819 -3.59098,3.59097 v 17.6676 44.81537 c 0,2.44187 1.14912,3.59098 3.44734,3.59098 h 10.48565 c 2.44186,0 3.44733,-1.29275 3.44733,-3.59098 v -45.6772 c 3.59098,-4.30917 8.90562,-6.89467 13.78935,-6.89467 1.29275,0 2.72914,0.14363 3.87825,0.43091 0.28728,0 0.43092,0 0.57456,0 1.14911,0 1.86731,-0.57455 2.01094,-1.8673 l 1.58003,-10.19837 c 0.14364,-0.43092 0.14364,-0.86184 0.14364,-1.29276 z"
     id="path7852"
     style="font-weight:bold;font-size:143.639px;line-height:1.25;font-family:FSAlbert;-inkscape-font-specification:'FSAlbert Bold';letter-spacing:-4.44px;opacity:1;fill:#522d90;fill-opacity:1;stroke-width:3.59098" /></g></svg>
